<svg xmlns="http://www.w3.org/2000/svg" viewBox="0 0 32 32" role="img" aria-label="OpenZIM MCP favicon">
  <rect x="0" y="0" width="32" height="32" rx="6" fill="#FFD24A"/>
  <g transform="translate(4 4) rotate(90 12 12)" fill="none" stroke="#0B0F1A" stroke-width="1.8" stroke-linecap="round" stroke-linejoin="round">
    <path d="M12 5a3 3 0 1 0-5.997.125 4 4 0 0 0-2.526 5.77 4 4 0 0 0 .556 6.588A4 4 0 1 0 12 18Z"/>
    <path d="M9 13a4.5 4.5 0 0 0 3-4"/>
    <path d="M12 13h4"/>
    <path d="M12 18h6a2 2 0 0 1 2 2v1"/>
    <path d="M12 8h8"/>
    <path d="M16 8V5a2 2 0 0 1 2-2"/>
    <circle cx="16" cy="13" r=".8" fill="#0B0F1A"/>
    <circle cx="18" cy="3"  r=".8" fill="#0B0F1A"/>
    <circle cx="20" cy="21" r=".8" fill="#0B0F1A"/>
    <circle cx="20" cy="8"  r=".8" fill="#0B0F1A"/>
  </g>
</svg>
