<svg xmlns="http://www.w3.org/2000/svg" viewBox="0 0 1200 630" role="img" aria-label="OpenZIM MCP — Knowledge that works offline">
  <defs>
    <radialGradient id="glow" cx="50%" cy="38%" r="50%">
      <stop offset="0%"   stop-color="#FFD24A" stop-opacity="0.18" />
      <stop offset="60%"  stop-color="#FFD24A" stop-opacity="0.04" />
      <stop offset="100%" stop-color="#FFD24A" stop-opacity="0" />
    </radialGradient>
  </defs>
  <rect width="1200" height="630" fill="#0B0F1A" />
  <rect width="1200" height="630" fill="url(#glow)" />

  <!-- Brain-circuit, scaled and centered in the upper portion -->
  <g transform="translate(456 96) scale(12) rotate(90 12 12)" fill="none" stroke="#F5F1E8" stroke-width="1.4" stroke-linecap="round" stroke-linejoin="round">
    <path d="M12 5a3 3 0 1 0-5.997.125 4 4 0 0 0-2.526 5.77 4 4 0 0 0 .556 6.588A4 4 0 1 0 12 18Z"/>
    <path d="M9 13a4.5 4.5 0 0 0 3-4"/>
    <path d="M6.003 5.125A3 3 0 0 0 6.401 6.5"/>
    <path d="M3.477 10.896a4 4 0 0 1 .585-.396"/>
    <path d="M6 18a4 4 0 0 1-1.967-.516"/>
    <path d="M12 13h4"/>
    <path d="M12 18h6a2 2 0 0 1 2 2v1"/>
    <path d="M12 8h8"/>
    <path d="M16 8V5a2 2 0 0 1 2-2"/>
  </g>
  <!-- Accent dots in amber -->
  <g transform="translate(456 96) scale(12) rotate(90 12 12)" stroke="none" fill="#FFD24A">
    <circle cx="16" cy="13" r="0.9"/>
    <circle cx="18" cy="3"  r="0.9"/>
    <circle cx="20" cy="21" r="0.9"/>
    <circle cx="20" cy="8"  r="0.9"/>
  </g>

  <text x="600" y="500" font-family="Geist, Inter, system-ui, sans-serif" font-size="68" font-weight="600" fill="#F5F1E8" text-anchor="middle" letter-spacing="-1">OpenZIM MCP</text>
  <text x="600" y="552" font-family="JetBrains Mono, ui-monospace, monospace" font-size="22" fill="#FFD24A" text-anchor="middle" letter-spacing="2">MCP SERVER · v1.1.1</text>
  <text x="600" y="590" font-family="Geist, Inter, system-ui, sans-serif" font-size="20" fill="#7A8499" text-anchor="middle">Knowledge that works offline.</text>
</svg>
